<svg width="17" height="26" viewBox="0 0 17 26" fill="none" xmlns="http://www.w3.org/2000/svg">
<path fill-rule="evenodd" clip-rule="evenodd" d="M12.687 1.32305C11.6933 0.296707 10.0557 0.27025 9.02939 1.26396L0.858446 9.17509C-0.167894 10.1688 -0.194349 11.8064 0.799357 12.8327C0.865308 12.9008 0.934096 12.9645 1.00535 13.0238C1.32712 13.5534 1.83911 13.9698 2.48 14.1599L9.56982 16.2629V22.9646C9.56982 24.3453 10.6891 25.4646 12.0698 25.4646C13.4505 25.4646 14.5698 24.3453 14.5698 22.9646V17.4619C15.5036 17.2961 16.3111 16.6209 16.5991 15.6498C17.0054 14.2802 16.2244 12.8406 14.8548 12.4344L14.5698 12.3498V11.9646C14.5698 10.5839 13.4505 9.4646 12.0698 9.4646C11.0571 9.4646 10.185 10.0668 9.79206 10.9327L7.25706 10.1807L12.6279 4.98066C13.6543 3.98696 13.6807 2.34939 12.687 1.32305Z" fill="url(#paint0_linear_1_423)"/>
<defs>
<linearGradient id="paint0_linear_1_423" x1="-0.892516" y1="3.32277" x2="12.1144" y2="27.2766" gradientUnits="userSpaceOnUse">
<stop stop-color="#F6600B"/>
<stop offset="1" stop-color="#F6D00B" stop-opacity="0"/>
</linearGradient>
</defs>
</svg>
