<svg width="58" height="14" viewBox="0 0 58 14" fill="none" xmlns="http://www.w3.org/2000/svg">
<path d="M2.80174 8.84365H6.02174V10.3638H0.841736V0.804688H2.80174V8.84365Z" fill="#D9E1F0"/>
<path d="M10.7115 10.487C9.96485 10.487 9.29285 10.3273 8.69552 10.0077C8.09818 9.67904 7.62685 9.21798 7.28152 8.62453C6.94552 8.03108 6.77752 7.34633 6.77752 6.57028C6.77752 5.79423 6.95018 5.10948 7.29552 4.51603C7.65018 3.92258 8.13085 3.46608 8.73752 3.14653C9.34418 2.81785 10.0209 2.65351 10.7675 2.65351C11.5142 2.65351 12.1909 2.81785 12.7975 3.14653C13.4042 3.46608 13.8802 3.92258 14.2255 4.51603C14.5802 5.10948 14.7575 5.79423 14.7575 6.57028C14.7575 7.34633 14.5755 8.03108 14.2115 8.62453C13.8569 9.21798 13.3715 9.67904 12.7555 10.0077C12.1489 10.3273 11.4675 10.487 10.7115 10.487ZM10.7115 8.81626C11.0662 8.81626 11.3975 8.73409 11.7055 8.56975C12.0229 8.39628 12.2749 8.14064 12.4615 7.80283C12.6482 7.46502 12.7415 7.05417 12.7415 6.57028C12.7415 5.84901 12.5455 5.29664 12.1535 4.91318C11.7709 4.52059 11.2995 4.3243 10.7395 4.3243C10.1795 4.3243 9.70818 4.52059 9.32552 4.91318C8.95218 5.29664 8.76552 5.84901 8.76552 6.57028C8.76552 7.29155 8.94752 7.84848 9.31152 8.24107C9.68485 8.62453 10.1515 8.81626 10.7115 8.81626Z" fill="#D9E1F0"/>
<path d="M18.1553 3.87236C18.4073 3.52543 18.7526 3.23783 19.1913 3.00958C19.6393 2.7722 20.1479 2.65351 20.7173 2.65351C21.3799 2.65351 21.9773 2.81329 22.5093 3.13284C23.0506 3.45239 23.4753 3.90888 23.7833 4.50233C24.1006 5.08665 24.2593 5.76684 24.2593 6.54289C24.2593 7.31894 24.1006 8.00825 23.7833 8.61083C23.4753 9.20428 23.0506 9.66535 22.5093 9.99403C21.9773 10.3227 21.3799 10.487 20.7173 10.487C20.1479 10.487 19.6439 10.3729 19.2053 10.1447C18.7759 9.91642 18.4259 9.62883 18.1553 9.28189V13.9793H16.1953V2.77677H18.1553V3.87236ZM22.2573 6.54289C22.2573 6.08639 22.1593 5.6938 21.9633 5.36512C21.7766 5.02731 21.5246 4.77167 21.2073 4.5982C20.8993 4.42473 20.5633 4.33799 20.1993 4.33799C19.8446 4.33799 19.5086 4.42929 19.1913 4.61189C18.8833 4.78536 18.6313 5.041 18.4353 5.37881C18.2486 5.71662 18.1553 6.11378 18.1553 6.57028C18.1553 7.02678 18.2486 7.42393 18.4353 7.76174C18.6313 8.09955 18.8833 8.35976 19.1913 8.54236C19.5086 8.71583 19.8446 8.80256 20.1993 8.80256C20.5633 8.80256 20.8993 8.71126 21.2073 8.52866C21.5246 8.34606 21.7766 8.08586 21.9633 7.74805C22.1593 7.41024 22.2573 7.00852 22.2573 6.54289Z" fill="#D9E1F0"/>
<path d="M25.1795 6.54289C25.1795 5.77597 25.3335 5.09578 25.6415 4.50233C25.9589 3.90888 26.3835 3.45239 26.9155 3.13284C27.4569 2.81329 28.0589 2.65351 28.7215 2.65351C29.3002 2.65351 29.8042 2.76764 30.2335 2.99589C30.6722 3.22414 31.0222 3.51173 31.2835 3.85867V2.77677H33.2575V10.3638H31.2835V9.2545C31.0315 9.61057 30.6815 9.90729 30.2335 10.1447C29.7949 10.3729 29.2862 10.487 28.7075 10.487C28.0542 10.487 27.4569 10.3227 26.9155 9.99403C26.3835 9.66535 25.9589 9.20428 25.6415 8.61083C25.3335 8.00825 25.1795 7.31894 25.1795 6.54289ZM31.2835 6.57028C31.2835 6.10465 31.1902 5.70749 31.0035 5.37881C30.8169 5.041 30.5649 4.78536 30.2475 4.61189C29.9302 4.42929 29.5895 4.33799 29.2255 4.33799C28.8615 4.33799 28.5255 4.42473 28.2175 4.5982C27.9095 4.77167 27.6575 5.02731 27.4615 5.36512C27.2749 5.6938 27.1815 6.08639 27.1815 6.54289C27.1815 6.99939 27.2749 7.40111 27.4615 7.74805C27.6575 8.08586 27.9095 8.34606 28.2175 8.52866C28.5349 8.71126 28.8709 8.80256 29.2255 8.80256C29.5895 8.80256 29.9302 8.71583 30.2475 8.54236C30.5649 8.35976 30.8169 8.10412 31.0035 7.77544C31.1902 7.43763 31.2835 7.03591 31.2835 6.57028Z" fill="#D9E1F0"/>
<path d="M44.8038 2.66721C45.7558 2.66721 46.5211 2.9548 47.0998 3.52999C47.6878 4.09605 47.9818 4.89036 47.9818 5.91292V10.3638H46.0218V6.17312C46.0218 5.57967 45.8678 5.12774 45.5598 4.81732C45.2518 4.49777 44.8318 4.33799 44.2998 4.33799C43.7678 4.33799 43.3431 4.49777 43.0258 4.81732C42.7178 5.12774 42.5638 5.57967 42.5638 6.17312V10.3638H40.6038V6.17312C40.6038 5.57967 40.4498 5.12774 40.1418 4.81732C39.8338 4.49777 39.4138 4.33799 38.8818 4.33799C38.3405 4.33799 37.9111 4.49777 37.5938 4.81732C37.2858 5.12774 37.1318 5.57967 37.1318 6.17312V10.3638H35.1718V2.77677H37.1318V3.69433C37.3838 3.37478 37.7058 3.12371 38.0978 2.94111C38.4991 2.75851 38.9378 2.66721 39.4138 2.66721C40.0205 2.66721 40.5618 2.79503 41.0378 3.05067C41.5138 3.29718 41.8825 3.65324 42.1438 4.11887C42.3958 3.68064 42.7598 3.32913 43.2358 3.06436C43.7211 2.79959 44.2438 2.66721 44.8038 2.66721Z" fill="#D9E1F0"/>
<path d="M49.3377 6.54289C49.3377 5.77597 49.4917 5.09578 49.7997 4.50233C50.1171 3.90888 50.5417 3.45239 51.0737 3.13284C51.6151 2.81329 52.2171 2.65351 52.8797 2.65351C53.4584 2.65351 53.9624 2.76764 54.3917 2.99589C54.8304 3.22414 55.1804 3.51173 55.4417 3.85867V2.77677H57.4157V10.3638H55.4417V9.2545C55.1897 9.61057 54.8397 9.90729 54.3917 10.1447C53.9531 10.3729 53.4444 10.487 52.8657 10.487C52.2124 10.487 51.6151 10.3227 51.0737 9.99403C50.5417 9.66535 50.1171 9.20428 49.7997 8.61083C49.4917 8.00825 49.3377 7.31894 49.3377 6.54289ZM55.4417 6.57028C55.4417 6.10465 55.3484 5.70749 55.1617 5.37881C54.9751 5.041 54.7231 4.78536 54.4057 4.61189C54.0884 4.42929 53.7477 4.33799 53.3837 4.33799C53.0197 4.33799 52.6837 4.42473 52.3757 4.5982C52.0677 4.77167 51.8157 5.02731 51.6197 5.36512C51.4331 5.6938 51.3397 6.08639 51.3397 6.54289C51.3397 6.99939 51.4331 7.40111 51.6197 7.74805C51.8157 8.08586 52.0677 8.34606 52.3757 8.52866C52.6931 8.71126 53.0291 8.80256 53.3837 8.80256C53.7477 8.80256 54.0884 8.71583 54.4057 8.54236C54.7231 8.35976 54.9751 8.10412 55.1617 7.77544C55.3484 7.43763 55.4417 7.03591 55.4417 6.57028Z" fill="#D9E1F0"/>
</svg>
