<svg width="30" height="30" viewBox="0 0 30 30" fill="none" xmlns="http://www.w3.org/2000/svg">
<path d="M22.8231 5.12238C22.8231 4.41855 22.5484 3.75598 22.0506 3.25816L19.5649 0.7725C19.074 0.281543 18.3772 0 17.6836 0H17.5326V5.27344H22.8231L22.8231 5.12238Z" fill="#5A73E5"/>
<path d="M16.051 18.1369C16.2192 17.6262 16.5128 17.1507 16.8956 16.7654L22.8465 10.8384V7.03125H16.6707C16.1849 7.03125 15.8203 6.63814 15.8203 6.15234V0H2.63672C1.18277 0 0 1.18277 0 2.63672V27.3633C0 28.8172 1.18277 30 2.63672 30H20.1863C21.6403 30 22.8465 28.8172 22.8465 27.3633V20.8037L21.8806 21.7461C21.4893 22.134 21.0309 22.4164 20.5142 22.5889L17.7196 23.5219L17.2938 23.5451C16.59 23.5451 15.924 23.2027 15.5103 22.6293C15.1 22.0586 14.9885 21.3187 15.2116 20.6501L16.051 18.1369ZM4.39453 15.8203H13.1551C13.6409 15.8203 14.034 16.2134 14.034 16.6992C14.034 17.185 13.6409 17.5781 13.1551 17.5781H4.39453C3.90873 17.5781 3.51562 17.185 3.51562 16.6992C3.51562 16.2134 3.90873 15.8203 4.39453 15.8203ZM3.51562 13.1836C3.51562 12.6978 3.90873 12.3047 4.39453 12.3047H13.1551C13.6409 12.3047 14.034 12.6978 14.034 13.1836C14.034 13.6694 13.6409 14.0625 13.1551 14.0625H4.39453C3.90873 14.0625 3.51562 13.6694 3.51562 13.1836ZM3.51562 20.2148C3.51562 19.729 3.90873 19.3359 4.39453 19.3359H13.1551C13.6409 19.3359 14.034 19.729 14.034 20.2148C14.034 20.7006 13.6409 21.0938 13.1551 21.0938H4.39453C3.90873 21.0938 3.51562 20.7006 3.51562 20.2148ZM16.6707 24.6094C17.1565 24.6094 17.5496 25.0025 17.5496 25.4883C17.5496 25.9741 17.1565 26.3672 16.6707 26.3672H11.3972C10.9114 26.3672 10.5183 25.9741 10.5183 25.4883C10.5183 25.0025 10.9114 24.6094 11.3972 24.6094H16.6707ZM4.39453 10.5469C3.90873 10.5469 3.51562 10.1538 3.51562 9.66797C3.51562 9.18217 3.90873 8.78906 4.39453 8.78906H16.6707C17.1565 8.78906 17.5496 9.18217 17.5496 9.66797C17.5496 10.1538 17.1565 10.5469 16.6707 10.5469H4.39453Z" fill="#5A73E5"/>
<path d="M17.6432 18.9146L16.8786 21.2086C16.764 21.5522 17.091 21.8791 17.4346 21.7643L19.7273 20.9986L17.6432 18.9146Z" fill="#5A73E5"/>
<path d="M24.4693 11.6782L18.6809 17.4666L21.1773 19.963C22.4856 18.6545 25.0312 16.1086 26.9654 14.1743L24.4693 11.6782Z" fill="#5A73E5"/>
<path d="M29.4835 9.15732C29.1745 8.8466 28.7196 8.66895 28.2372 8.66895C27.7548 8.66895 27.2999 8.8466 26.9892 9.1582L25.712 10.4354L28.208 12.9314C28.9072 12.2321 29.3905 11.7488 29.4853 11.6541C30.1718 10.9665 30.1718 9.8465 29.4835 9.15732Z" fill="#5A73E5"/>
<path d="M29.4854 11.6549C29.4854 11.6549 29.4854 11.6548 29.4855 11.6548C29.488 11.6522 29.4891 11.6511 29.4912 11.649C29.4891 11.6512 29.488 11.6523 29.4854 11.6549Z" fill="black"/>
<path d="M29.4912 11.6498C29.4942 11.6469 29.4976 11.6434 29.4994 11.6416C29.4976 11.6435 29.4942 11.6469 29.4912 11.6498Z" fill="black"/>
<path d="M29.4986 11.6416C29.505 11.6352 29.5051 11.635 29.4986 11.6416V11.6416Z" fill="#F59614"/>
</svg>
