<svg width="34" height="34" viewBox="0 0 34 34" fill="none" xmlns="http://www.w3.org/2000/svg">
<path d="M30.4207 3.58266C28.1104 1.27242 25.0386 0 21.7712 0C18.5038 0 15.4319 1.27242 13.1217 3.58266C9.15095 7.55342 8.48679 13.5971 11.1278 18.2621L0.958836 28.4315C-0.315055 29.7057 -0.315055 31.7711 0.958836 33.0445C2.23232 34.3184 4.29767 34.3186 5.57188 33.0445L15.738 22.879C17.557 23.9136 19.6217 24.4644 21.7712 24.4644C25.0385 24.4644 28.1103 23.192 30.4207 20.8817C35.1899 16.1123 35.1899 8.35197 30.4207 3.58266ZM28.4986 18.9596C26.7015 20.7566 24.3124 21.7461 21.7712 21.7461C19.2299 21.7461 16.8407 20.7565 15.0438 18.9596C11.3344 15.2501 11.3344 9.21426 15.0438 5.5048C16.8408 3.70784 19.23 2.71833 21.7712 2.71833C24.3125 2.71833 26.7017 3.70792 28.4986 5.5048C32.2079 9.21418 32.2079 15.25 28.4986 18.9596Z" fill="#5A73E5"/>
<path d="M27.5524 7.25776C27.1542 6.85938 26.5082 6.85913 26.1098 7.2576C25.7113 7.6559 25.7113 8.3017 26.1096 8.70016C27.9933 10.5843 27.9933 13.6498 26.1096 15.5338C25.7113 15.9322 25.7113 16.5781 26.1098 16.9764C26.309 17.1755 26.57 17.2751 26.831 17.2751C27.0921 17.2751 27.3531 17.1754 27.5524 16.9762C30.2311 14.2969 30.2311 9.93725 27.5524 7.25776Z" fill="#5A73E5"/>
</svg>
